<svg xmlns="http://www.w3.org/2000/svg" width="80px" height="80px" viewBox="0 0 500 500" transform="rotate(180) scale(1, 1)">
<g>
<path d="M 236.50 386.35 C225.00,384.65 211.22,377.46 204.21,369.50 C192.21,355.87 187.95,335.35 193.74,319.00 C195.69,313.48 296.22,141.68 302.73,132.73 C312.25,119.65 332.92,111.42 349.75,114.00 C359.48,115.49 372.09,121.91 379.02,128.92 C392.50,142.55 397.40,163.61 391.19,181.21 C390.09,184.35 365.42,227.32 336.37,276.71 C280.62,371.50 279.71,372.88 268.84,379.25 C259.92,384.47 245.41,387.66 236.50,386.35 ZM 125.50 217.13 C102.91,210.64 86.95,189.52 87.01,166.20 C87.06,148.53 96.35,131.63 111.43,121.83 C127.13,111.61 149.48,110.91 165.68,120.12 C190.61,134.30 199.72,164.34 186.88,190.00 C175.64,212.46 149.48,224.02 125.50,217.13 Z" fill="#000000"/>
</g>
</svg>